<?xml version="1.0" encoding="UTF-8"?>
<svg version="1.1" xmlns="http://www.w3.org/2000/svg" width="225" height="225">
<path d="M0 0 C0.33 0 0.66 0 1 0 C1.12004395 0.66829834 1.24008789 1.33659668 1.36376953 2.02514648 C6.08595963 27.91723022 12.95757694 49.62714922 30 70 C30.79277344 70.95777344 31.58554688 71.91554688 32.40234375 72.90234375 C53.11060274 96.83263331 82.4552534 107.5271662 113 112 C113 112.66 113 113.32 113 114 C111.94683594 114.09796875 110.89367187 114.1959375 109.80859375 114.296875 C83.89077282 116.89743664 61.87037564 126.10183181 42 143 C40.89591797 143.88558594 40.89591797 143.88558594 39.76953125 144.7890625 C19.0813472 161.99870233 5.83989431 189.77472573 2.60546875 216.2265625 C2.46430656 217.8870127 2.34768178 219.55005866 2.2734375 221.21484375 C2 223 2 223 0 225 C-1.41399715 222.17200571 -1.46120003 219.45450068 -1.8125 216.3125 C-4.54262788 194.63606842 -13.30018525 171.32429951 -28.78515625 155.41796875 C-30 154 -30 154 -30 152 C-30.66 152 -31.32 152 -32 152 C-32.98432273 150.91573065 -33.91138021 149.77934586 -34.8125 148.625 C-53.89341181 126.36393623 -84.02907361 117.09593527 -112 113 C-108.22047285 110.66500417 -104.18355556 110.34101893 -99.875 109.75 C-78.66868857 106.4636355 -59.50003015 97.72279735 -43 84 C-42.07832031 83.24203125 -41.15664062 82.4840625 -40.20703125 81.703125 C-19.65712725 63.96470293 -6.50032563 38.62164459 -2 12 C-1.79632813 10.8346875 -1.59265625 9.669375 -1.3828125 8.46875 C-0.901791 5.64851434 -0.44007964 2.82686452 0 0 Z " fill="#5088D3" transform="translate(112,0)"/>
<path d="M0 0 C1.32 0.33 2.64 0.66 4 1 C4.20551329 4.69923924 3.68248981 6.74718637 2 10 C2.495 10.99 2.495 10.99 3 12 C1.865625 12.28875 0.73125 12.5775 -0.4375 12.875 C-1.613125 13.24625 -2.78875 13.6175 -4 14 C-4.33 14.66 -4.66 15.32 -5 16 C-5.99 15.505 -5.99 15.505 -7 15 C-7.37125 16.4540625 -7.37125 16.4540625 -7.75 17.9375 C-8.1625 18.948125 -8.575 19.95875 -9 21 C-10.33333333 21.33333333 -11.66666667 21.66666667 -13 22 C-14.3045656 24.99615946 -14.3045656 24.99615946 -15 28 C-16.98 28.33 -18.96 28.66 -21 29 C-20.938125 29.94875 -20.87625 30.8975 -20.8125 31.875 C-20.9053125 33.421875 -20.9053125 33.421875 -21 35 C-24 37 -24 37 -27 37 C-30.52894948 37.08743691 -30.52894948 37.08743691 -34 38 C-34.61875 39.2065625 -34.61875 39.2065625 -35.25 40.4375 C-37 43 -37 43 -39.48046875 43.703125 C-41.41742979 44.02040792 -43.36069127 44.30179987 -45.30859375 44.54296875 C-47.96060606 44.99331046 -49.74314432 45.55459805 -52 47 C-52.45375 47.86625 -52.9075 48.7325 -53.375 49.625 C-53.91125 50.40875 -54.4475 51.1925 -55 52 C-58.0625 52.3125 -58.0625 52.3125 -61 52 C-63.7283768 52 -66.31654063 52.53331141 -69 53 C-69 54.32 -69 55.64 -69 57 C-68.34 57 -67.68 57 -67 57 C-67 57.66 -67 58.32 -67 59 C-75.34532212 57.73474149 -83.67780601 56.40952475 -92 55 C-88.22047285 52.66500417 -84.18355556 52.34101893 -79.875 51.75 C-58.66868857 48.4636355 -39.50003015 39.72279735 -23 26 C-21.61748047 24.86304688 -21.61748047 24.86304688 -20.20703125 23.703125 C-12.71018367 17.23193922 -4.4938219 8.98764381 0 0 Z " fill="#807CC5" transform="translate(92,58)"/>
<path d="M0 0 C4.87669718 0.5064819 7.82825376 1.90264344 11.875 4.625 C28.77215191 15.5025723 47.36676143 19.82792229 67 23 C67 23.66 67 24.32 67 25 C65.42025391 25.14695312 65.42025391 25.14695312 63.80859375 25.296875 C44.59199834 27.22504408 28.04909977 33.12026054 11 42 C11 40.35 11 38.7 11 37 C11.928125 36.8453125 11.928125 36.8453125 12.875 36.6875 C15.36526484 36.12474627 15.36526484 36.12474627 17 33 C19.3828125 32.26953125 19.3828125 32.26953125 22.125 31.8125 C23.03507812 31.65394531 23.94515625 31.49539062 24.8828125 31.33203125 C25.58148438 31.22246094 26.28015625 31.11289063 27 31 C27.33 30.01 27.66 29.02 28 28 C29.62890625 26.61328125 29.62890625 26.61328125 31.5625 25.3125 C32.52349609 24.65701172 32.52349609 24.65701172 33.50390625 23.98828125 C33.99761719 23.66214844 34.49132812 23.33601563 35 23 C33.68 22.34 32.36 21.68 31 21 C31 20.34 31 19.68 31 19 C30.34 19 29.68 19 29 19 C28.649375 18.34 28.29875 17.68 27.9375 17 C26.23172504 14.79901987 26.23172504 14.79901987 24.015625 14.83984375 C22.44127876 14.90588176 20.86705818 14.97497532 19.29296875 15.046875 C15.94350284 14.9784021 13.74230409 13.85105526 11 12 C10.67 11.01 10.34 10.02 10 9 C9.01 9 8.02 9 7 9 C6.67 8.34 6.34 7.68 6 7 C5.01 6.67 4.02 6.34 3 6 C0 2.55555556 0 2.55555556 0 0 Z " fill="#39A5DC" transform="translate(158,89)"/>
<path d="M0 0 C0 1.98 0 3.96 0 6 C7.05651252 6.14975239 7.05651252 6.14975239 14 5 C15.58400609 7.01600775 16.93086257 8.84876188 18 11.1875 C18.92729859 13.35236812 18.92729859 13.35236812 22 14 C22 14.66 22 15.32 22 16 C22.5775 16.0825 23.155 16.165 23.75 16.25 C26.6701433 17.2233811 28.01787793 18.67613275 30 21 C30.495 22.485 30.495 22.485 31 24 C31.5775 23.7525 32.155 23.505 32.75 23.25 C33.86375 23.12625 33.86375 23.12625 35 23 C36.38007251 24.2848951 37.70420353 25.63015802 39 27 C41.27790728 28.46120618 43.61414043 29.71530639 46 31 C45.505 31.99 45.505 31.99 45 33 C44.01 32.505 44.01 32.505 43 32 C43 32.99 43 33.98 43 35 C43.66 35 44.32 35 45 35 C45 35.99 45 36.98 45 38 C46.32 38.66 47.64 39.32 49 40 C48.34 40.66 47.68 41.32 47 42 C45.5 40.625 45.5 40.625 44 39 C44 38.34 44 37.68 44 37 C43.34 37 42.68 37 42 37 C41.01567727 35.91573065 40.08861979 34.77934586 39.1875 33.625 C27.51943142 20.01225332 10.6314788 11.41378654 -5.890625 5.19140625 C-8.36029525 4.245113 -10.66950517 3.24023859 -13 2 C-11.68 2 -10.36 2 -9 2 C-9 1.01 -9 0.02 -9 -1 C-5.23375329 -2.25541557 -3.62811066 -1.37061958 0 0 Z " fill="#8489C6" transform="translate(38,115)"/>
<path d="M0 0 C0.66 0.33 1.32 0.66 2 1 C-3.05364807 8.74892704 -3.05364807 8.74892704 -6.6796875 9.7109375 C-8.80386922 10.15239336 -10.928872 10.58991738 -13.0546875 11.0234375 C-16.36026872 12.11945249 -17.79631895 13.34533306 -20 16 C-20.33 16.66 -20.66 17.32 -21 18 C-23.66666667 18 -26.33333333 18 -29 18 C-31.00212229 18.32033957 -33.00239695 18.65259077 -35 19 C-35 20.32 -35 21.64 -35 23 C-34.34 23 -33.68 23 -33 23 C-33 23.66 -33 24.32 -33 25 C-41.34532212 23.73474149 -49.67780601 22.40952475 -58 21 C-54.22047285 18.66500417 -50.18355556 18.34101893 -45.875 17.75 C-31.40969877 15.50829698 -10.73686315 10.73686315 0 0 Z " fill="#9B81C4" transform="translate(58,92)"/>
<path d="M0 0 C4.87669718 0.5064819 7.82825376 1.90264344 11.875 4.625 C18.17078247 8.72592252 24.74092574 11.67594742 31.6640625 14.5546875 C35 16 35 16 38 18 C37.67 18.66 37.34 19.32 37 20 C37.66 20.66 38.32 21.32 39 22 C38.34 23.32 37.68 24.64 37 26 C37.99 26 38.98 26 40 26 C40 26.66 40 27.32 40 28 C37.69 28 35.38 28 33 28 C33 28.66 33 29.32 33 30 C31.68 29.67 30.36 29.34 29 29 C29.804375 28.21625 30.60875 27.4325 31.4375 26.625 C33.98690417 24.28017144 33.98690417 24.28017144 35 22 C33.68 21.67 32.36 21.34 31 21 C31 20.34 31 19.68 31 19 C30.34 19 29.68 19 29 19 C28.649375 18.34 28.29875 17.68 27.9375 17 C26.23172504 14.79901987 26.23172504 14.79901987 24.015625 14.83984375 C22.44127876 14.90588176 20.86705818 14.97497532 19.29296875 15.046875 C15.94350284 14.9784021 13.74230409 13.85105526 11 12 C10.67 11.01 10.34 10.02 10 9 C9.01 9 8.02 9 7 9 C6.67 8.34 6.34 7.68 6 7 C5.01 6.67 4.02 6.34 3 6 C0 2.55555556 0 2.55555556 0 0 Z " fill="#31A3DB" transform="translate(158,89)"/>
<path d="M0 0 C0.33 0 0.66 0 1 0 C1.20363159 1.06528931 1.20363159 1.06528931 1.41137695 2.15209961 C2.03881345 5.41514115 2.6755887 8.67629516 3.3125 11.9375 C3.52583984 13.05447266 3.73917969 14.17144531 3.95898438 15.32226562 C5.09645804 21.11149728 6.36004229 26.60648445 8.53588867 32.09985352 C9.11051617 34.45247097 8.93969497 35.7738713 8 38 C6.515 38.495 6.515 38.495 5 39 C4.67 39.66 4.34 40.32 4 41 C3.34 40.34 2.68 39.68 2 39 C2.0234375 36.3984375 2.0234375 36.3984375 2.375 33.375 C2.48585938 32.37210938 2.59671875 31.36921875 2.7109375 30.3359375 C2.85402344 29.17964844 2.85402344 29.17964844 3 28 C0.37886292 28 -1.50935112 28.31292445 -4 29 C-5.24960182 25.25119453 -4.5880977 23.39110729 -3.6875 19.5625 C-2.21469427 13.06999401 -1.023867 6.57683978 0 0 Z " fill="#6C82CC" transform="translate(112,0)"/>
<path d="M0 0 C0.99 0 1.98 0 3 0 C3 1.65 3 3.3 3 5 C3.66 5 4.32 5 5 5 C5.33 4.34 5.66 3.68 6 3 C7.9375 3.75 7.9375 3.75 10 5 C11.2064469 8.15744389 10.8953892 10.38514403 10.125 13.625 C9.13357519 18.07980213 8.63180181 22.41753145 8.34375 26.96875 C8 29 8 29 6 31 C4.57857038 28.15714077 4.4981369 25.40529798 4.125 22.25 C3.19204903 14.71922711 1.7094537 7.39623636 0 0 Z " fill="#509DD8" transform="translate(106,194)"/>
<path d="M0 0 C1.32 0.33 2.64 0.66 4 1 C4.20551329 4.69923924 3.68248981 6.74718637 2 10 C2.33 10.66 2.66 11.32 3 12 C1.865625 12.28875 0.73125 12.5775 -0.4375 12.875 C-1.613125 13.24625 -2.78875 13.6175 -4 14 C-4.33 14.66 -4.66 15.32 -5 16 C-5.66 15.67 -6.32 15.34 -7 15 C-7.66 16.32 -8.32 17.64 -9 19 C-10.32 18.34 -11.64 17.68 -13 17 C-11.96939453 15.78763672 -11.96939453 15.78763672 -10.91796875 14.55078125 C-10.00762725 13.4715104 -9.09748135 12.39207453 -8.1875 11.3125 C-7.73568359 10.78205078 -7.28386719 10.25160156 -6.81835938 9.70507812 C-4.22098126 6.61476694 -1.96851236 3.52501051 0 0 Z " fill="#7983C7" transform="translate(92,58)"/>
<path d="M0 0 C5.09647717 0.48796058 8.66704554 2.30638503 12.875 5.0625 C13.76445312 5.62807617 13.76445312 5.62807617 14.671875 6.20507812 C16.12027322 7.12784796 17.56096031 8.06270263 19 9 C18.6875 10.9375 18.6875 10.9375 18 13 C14.37673261 14.2077558 13.35853631 13.54311128 10 12 C10 11.01 10 10.02 10 9 C9.01 9 8.02 9 7 9 C6.67 8.34 6.34 7.68 6 7 C5.01 6.67 4.02 6.34 3 6 C0 2.55555556 0 2.55555556 0 0 Z " fill="#2A9EE1" transform="translate(158,89)"/>
<path d="M0 0 C0.66 0.33 1.32 0.66 2 1 C0.95545271 6.88633122 -0.33979034 12.41311074 -2.51171875 17.9921875 C-3.08279438 20.34045047 -2.75741738 21.7328312 -2 24 C-2.5775 24.12375 -3.155 24.2475 -3.75 24.375 C-6.02335767 25.00648824 -7.9253529 25.88858191 -10 27 C-10 22.4923598 -8.63143164 19.67632323 -6.6875 15.75 C-4.18997438 10.57006293 -1.88734425 5.43999226 0 0 Z " fill="#7785C9" transform="translate(106,29)"/>
<path d="M0 0 C0 1.98 0 3.96 0 6 C2.31 6.33 4.62 6.66 7 7 C7 7.66 7 8.32 7 9 C8.32 9 9.64 9 11 9 C11.33 9.99 11.66 10.98 12 12 C7.38241755 10.51322423 2.87348801 8.81014856 -1.625 7 C-2.27984375 6.73960938 -2.9346875 6.47921875 -3.609375 6.2109375 C-6.80917766 4.9284255 -9.95016461 3.61006538 -13 2 C-11.68 2 -10.36 2 -9 2 C-9 1.01 -9 0.02 -9 -1 C-5.23375329 -2.25541557 -3.62811066 -1.37061958 0 0 Z " fill="#9F8BC6" transform="translate(38,115)"/>
<path d="M0 0 C0.33 0 0.66 0 1 0 C1.53107314 2.74837849 2.05015881 5.49812375 2.5625 8.25 C2.71396484 9.02730469 2.86542969 9.80460938 3.02148438 10.60546875 C3.16005859 11.35957031 3.29863281 12.11367187 3.44140625 12.890625 C3.57232666 13.58188477 3.70324707 14.27314453 3.83813477 14.98535156 C4.01710362 17.21287942 3.65206197 18.87506962 3 21 C3 20.34 3 19.68 3 19 C2.34 19 1.68 19 1 19 C1 18.34 1 17.68 1 17 C0.34 17 -0.32 17 -1 17 C-1.33 18.32 -1.66 19.64 -2 21 C-2.91145054 18.02977779 -3.01801972 15.93514414 -2.44140625 12.890625 C-2.30283203 12.13652344 -2.16425781 11.38242188 -2.02148438 10.60546875 C-1.87001953 9.82816406 -1.71855469 9.05085937 -1.5625 8.25 C-1.41490234 7.45722656 -1.26730469 6.66445312 -1.11523438 5.84765625 C-0.75096034 3.89702754 -0.37647488 1.9483107 0 0 Z " fill="#8995CB" transform="translate(112,0)"/>
<path d="M0 0 C2.78637633 4.1795645 1.79562512 6.14668677 1 11 C-1 10 -3 9 -5 8 C-5.33 8.99 -5.66 9.98 -6 11 C-6.66 10.67 -7.32 10.34 -8 10 C-8 8.35 -8 6.7 -8 5 C-6.8553125 4.87625 -6.8553125 4.87625 -5.6875 4.75 C-2.47626739 3.85384206 -1.70625501 2.78388975 0 0 Z " fill="#4496D8" transform="translate(117,189)"/>
<path d="M0 0 C3.59391114 1.33488128 6.75490696 2.96022723 10 5 C9.67 5.66 9.34 6.32 9 7 C8.34 6.67 7.68 6.34 7 6 C7 6.99 7 7.98 7 9 C7.66 9 8.32 9 9 9 C9 9.99 9 10.98 9 12 C10.32 12.66 11.64 13.32 13 14 C12.34 14.66 11.68 15.32 11 16 C9.5 14.625 9.5 14.625 8 13 C8 12.34 8 11.68 8 11 C7.34 11 6.68 11 6 11 C2.79385533 7.59347128 1.25190626 4.48599743 0 0 Z " fill="#718CCC" transform="translate(74,141)"/>
<path d="M0 0 C2.91024202 2.50058918 4.16791164 5.19655377 5.6875 8.6875 C6.12449219 9.68136719 6.56148438 10.67523438 7.01171875 11.69921875 C7.33785156 12.45847656 7.66398438 13.21773437 8 14 C7.01 14.33 6.02 14.66 5 15 C5 14.34 5 13.68 5 13 C4.34 13 3.68 13 3 13 C-1.06153846 6.84615385 -1.06153846 6.84615385 -0.75 2.5625 C-0.5025 1.716875 -0.255 0.87125 0 0 Z " fill="#698ECA" transform="translate(121,39)"/>
<path d="M0 0 C0.66 0 1.32 0 2 0 C2.33 0.99 2.66 1.98 3 3 C2.01 3.66 1.02 4.32 0 5 C0 3.35 0 1.7 0 0 Z M-4 5 C-2.35 5.33 -0.7 5.66 1 6 C1.33 6.99 1.66 7.98 2 9 C0.865625 9.28875 -0.26875 9.5775 -1.4375 9.875 C-2.613125 10.24625 -3.78875 10.6175 -5 11 C-5.33 11.66 -5.66 12.32 -6 13 C-7.125 9.25 -7.125 9.25 -6 7 C-5.34 7 -4.68 7 -4 7 C-4 6.34 -4 5.68 -4 5 Z " fill="#6A7ACB" transform="translate(93,61)"/>
<path d="M0 0 C1.98 0.66 3.96 1.32 6 2 C5.34 3.65 4.68 5.3 4 7 C4.99 7 5.98 7 7 7 C7 7.66 7 8.32 7 9 C4.69 9 2.38 9 0 9 C0 9.66 0 10.32 0 11 C-1.32 10.67 -2.64 10.34 -4 10 C-3.21625 9.236875 -2.4325 8.47375 -1.625 7.6875 C1.07257717 5.09108195 1.07257717 5.09108195 3 2 C2.01 1.67 1.02 1.34 0 1 C0 0.67 0 0.34 0 0 Z " fill="#1BA0E2" transform="translate(191,108)"/>
<path d="M0 0 C1.75 2 1.75 2 3 4 C2.01 5.485 2.01 5.485 1 7 C-0.32 6.67 -1.64 6.34 -3 6 C-3 5.34 -3 4.68 -3 4 C-4.32 4 -5.64 4 -7 4 C-7 3.34 -7 2.68 -7 2 C-4 0 -4 0 0 0 Z " fill="#7E70C2" transform="translate(52,120)"/>
<path d="M0 0 C1.77178053 0.956581 3.54239076 1.91532988 5.3125 2.875 C6.79169922 3.67550781 6.79169922 3.67550781 8.30078125 4.4921875 C11 6 11 6 14 8 C14 8.66 14 9.32 14 10 C11.75 10.25 11.75 10.25 9 10 C6.75567018 8.12972515 5.30556798 6.61113596 4 4 C1.98330173 2.86649466 1.98330173 2.86649466 0 2 C0 1.34 0 0.68 0 0 Z " fill="#45A1D4" transform="translate(161,89)"/>
<path d="M0 0 C0.70125 0.721875 1.4025 1.44375 2.125 2.1875 C4.92770745 4.99823813 7.92262792 7.49516226 11 10 C8.64046906 12.35953094 7.22104383 12.49141413 4 13 C3.67 12.01 3.34 11.02 3 10 C3.66 9.67 4.32 9.34 5 9 C4.34 8.38125 3.68 7.7625 3 7.125 C1 5 1 5 1 3 C0.01 2.67 -0.98 2.34 -2 2 C-1.34 2 -0.68 2 0 2 C0 1.34 0 0.68 0 0 Z " fill="#5998D0" transform="translate(143,72)"/>
<path d="M0 0 C1.32 0.33 2.64 0.66 4 1 C2.47793991 3.62901288 1.15634036 5.84365964 -1 8 C-3.125 7.625 -3.125 7.625 -5 7 C-4.34 5.68 -3.68 4.36 -3 3 C-2.67 3.33 -2.34 3.66 -2 4 C-1.34 2.68 -0.68 1.36 0 0 Z " fill="#3499D9" transform="translate(147,142)"/>
<path d="M0 0 C0.33 0.66 0.66 1.32 1 2 C1.66 2 2.32 2 3 2 C3.05395478 3.62463842 3.09277195 5.24978541 3.125 6.875 C3.14820312 7.77992188 3.17140625 8.68484375 3.1953125 9.6171875 C3 12 3 12 1 14 C-0.38226016 11.23547967 -0.09525387 8.9538637 -0.0625 5.875 C-0.05347656 4.77929688 -0.04445313 3.68359375 -0.03515625 2.5546875 C-0.02355469 1.71164063 -0.01195313 0.86859375 0 0 Z " fill="#8BB5D3" transform="translate(111,211)"/>
<path d="M0 0 C0.99 0 1.98 0 3 0 C3 1.65 3 3.3 3 5 C3.66 5.33 4.32 5.66 5 6 C5 8.64 5 11.28 5 14 C4.34 14 3.68 14 3 14 C2.01 9.38 1.02 4.76 0 0 Z " fill="#62A2D3" transform="translate(106,194)"/>
<path d="M0 0 C1 3 1 3 0.00390625 5.26171875 C-0.47175781 6.06222656 -0.94742188 6.86273438 -1.4375 7.6875 C-2.14712891 8.89986328 -2.14712891 8.89986328 -2.87109375 10.13671875 C-3.42990234 11.05904297 -3.42990234 11.05904297 -4 12 C-5.32 11.34 -6.64 10.68 -8 10 C-5.36 6.7 -2.72 3.4 0 0 Z " fill="#8A8EC8" transform="translate(87,65)"/>
<path d="M0 0 C0.6875 1.75 0.6875 1.75 1 4 C-0.3125 6.25 -0.3125 6.25 -2 8 C-2.66 8 -3.32 8 -4 8 C-4 7.01 -4 6.02 -4 5 C-4.66 5 -5.32 5 -6 5 C-6 4.01 -6 3.02 -6 2 C-2.25 0 -2.25 0 0 0 Z " fill="#5C80D2" transform="translate(87,145)"/>
<path d="M0 0 C0.33 0 0.66 0 1 0 C1.1875 2.375 1.1875 2.375 1 5 C-2.20380017 7.13586678 -3.01939967 7.23132175 -6.6875 7.125 C-7.89986328 7.09792969 -7.89986328 7.09792969 -9.13671875 7.0703125 C-10.05904297 7.03550781 -10.05904297 7.03550781 -11 7 C-10.67 6.34 -10.34 5.68 -10 5 C-7.71484375 4.3671875 -7.71484375 4.3671875 -4.9375 3.875 C-4.01839844 3.70742187 -3.09929687 3.53984375 -2.15234375 3.3671875 C-1.44207031 3.24601562 -0.73179687 3.12484375 0 3 C0 2.01 0 1.02 0 0 Z " fill="#2BA1DD" transform="translate(185,117)"/>
<path d="M0 0 C3.72433382 1.2125738 7.37802806 2.50859979 11 4 C8.00519083 4.8723412 5.36424089 5.10829766 2.25 5.0625 C1.45078125 5.05347656 0.6515625 5.04445313 -0.171875 5.03515625 C-0.77515625 5.02355469 -1.3784375 5.01195313 -2 5 C-1.34 3.35 -0.68 1.7 0 0 Z " fill="#47A9DC" transform="translate(177,99)"/>
<path d="M0 0 C1.32 0 2.64 0 4 0 C5.04005702 3.38018531 5.08004482 6.4780279 5 10 C2 8 2 8 1.375 6.125 C1.25125 5.42375 1.1275 4.7225 1 4 C0.814375 3.2575 0.62875 2.515 0.4375 1.75 C0.293125 1.1725 0.14875 0.595 0 0 Z " fill="#458DDB" transform="translate(99,169)"/>
<path d="M0 0 C0 0.33 0 0.66 0 1 C-2.10170656 1.53067341 -4.20647598 2.04922857 -6.3125 2.5625 C-7.48425781 2.85253906 -8.65601563 3.14257812 -9.86328125 3.44140625 C-13 4 -13 4 -16 3 C-15.67 2.34 -15.34 1.68 -15 1 C-10.03901518 -0.24024621 -5.07558808 -0.10151176 0 0 Z " fill="#61B5DE" transform="translate(213,114)"/>
<path d="M0 0 C-0.33 0.99 -0.66 1.98 -1 3 C-3.64 2.67 -6.28 2.34 -9 2 C-9 1.01 -9 0.02 -9 -1 C-5.23375329 -2.25541557 -3.62811066 -1.37061958 0 0 Z " fill="#8D68C4" transform="translate(38,115)"/>
<path d="M0 0 C0 0.99 0 1.98 0 3 C-3.63 2.67 -7.26 2.34 -11 2 C-6.78370866 -0.10814567 -4.60209225 -0.17700355 0 0 Z " fill="#AA96C2" transform="translate(11,111)"/>
<path d="M0 0 C1.65 0 3.3 0 5 0 C4.01 1.98 3.02 3.96 2 6 C0.02 6 -1.96 6 -4 6 C-3 4 -3 4 0 3 C0 2.01 0 1.02 0 0 Z " fill="#906DBE" transform="translate(35,104)"/>
<path d="M0 0 C1.64826111 2.96687001 2.44271087 5.65626525 3 9 C2.01 9.33 1.02 9.66 0 10 C-1.125 8.375 -1.125 8.375 -2 6 C-1.125 2.75 -1.125 2.75 0 0 Z " fill="#7A91D1" transform="translate(117,25)"/>
<path d="M0 0 C0.33 0.66 0.66 1.32 1 2 C1.66 2 2.32 2 3 2 C3 2.99 3 3.98 3 5 C3.66 5 4.32 5 5 5 C5.66 6.32 6.32 7.64 7 9 C6.34 9 5.68 9 5 9 C4.67 9.66 4.34 10.32 4 11 C3.32591692 9.73308493 2.66099503 8.46129251 2 7.1875 C1.62875 6.47980469 1.2575 5.77210938 0.875 5.04296875 C0 3 0 3 0 0 Z " fill="#6A99CF" transform="translate(96,170)"/>
<path d="M0 0 C6.625 -0.125 6.625 -0.125 10 1 C10 1.66 10 2.32 10 3 C6.7 3 3.4 3 0 3 C0 2.01 0 1.02 0 0 Z " fill="#ABD0E3" transform="translate(215,111)"/>
<path d="M0 0 C2.64 0 5.28 0 8 0 C7.01 0.33 6.02 0.66 5 1 C4.67 1.99 4.34 2.98 4 4 C2.35 4 0.7 4 -1 4 C-0.67 2.68 -0.34 1.36 0 0 Z " fill="#9276B9" transform="translate(12,110)"/>
<path d="M0 0 C2.96404505 2.80804268 5.44499019 5.18315774 7 9 C6.01 9 5.02 9 4 9 C4 8.34 4 7.68 4 7 C3.01 7 2.02 7 1 7 C0.67 4.69 0.34 2.38 0 0 Z " fill="#719ED0" transform="translate(134,61)"/>
<path d="M0 0 C0.33 0 0.66 0 1 0 C1.33 3.63 1.66 7.26 2 11 C1.01 11 0.02 11 -1 11 C-1.14285714 3.57142857 -1.14285714 3.57142857 0 0 Z " fill="#98A2C9" transform="translate(112,0)"/>
<path d="M0 0 C0 0.99 0 1.98 0 3 C-3.82320557 4.42258812 -6.91281305 5.24042276 -11 5 C-3.5 0 -3.5 0 0 0 Z " fill="#9E8AC8" transform="translate(48,99)"/>
<path d="M0 0 C0 0.99 0 1.98 0 3 C-1.875 4.0625 -1.875 4.0625 -4 5 C-4.66 4.67 -5.32 4.34 -6 4 C-6 3.01 -6 2.02 -6 1 C-4 0 -4 0 0 0 Z " fill="#8A7ABB" transform="translate(54,97)"/>
<path d="M0 0 C0.66 0.33 1.32 0.66 2 1 C1.44271087 4.34373475 0.64826111 7.03312999 -1 10 C-1.66 10 -2.32 10 -3 10 C-2.01 6.7 -1.02 3.4 0 0 Z " fill="#8B98CE" transform="translate(106,29)"/>
<path d="M0 0 C0.99 0 1.98 0 3 0 C2.34 2.31 1.68 4.62 1 7 C0.34 6.67 -0.32 6.34 -1 6 C-1.042721 4.33388095 -1.04063832 2.66617115 -1 1 C-0.67 0.67 -0.34 0.34 0 0 Z " fill="#5DA1D4" transform="translate(119,186)"/>
<path d="M0 0 C2.97 1.65 5.94 3.3 9 5 C7.68 5.33 6.36 5.66 5 6 C4.67 5.34 4.34 4.68 4 4 C1.98330173 2.86649466 1.98330173 2.86649466 0 2 C0 1.34 0 0.68 0 0 Z " fill="#57A6D7" transform="translate(161,89)"/>
<path d="M0 0 C2.625 -0.1875 2.625 -0.1875 5 0 C4.67 1.32 4.34 2.64 4 4 C1.03 3.505 1.03 3.505 -2 3 C-1.34 2.01 -0.68 1.02 0 0 Z " fill="#3A8FD7" transform="translate(149,83)"/>
<path d="M0 0 C-0.33 0.99 -0.66 1.98 -1 3 C-2.98 3 -4.96 3 -7 3 C-7 2.34 -7 1.68 -7 1 C-4 0 -4 0 0 0 Z " fill="#9B7BBD" transform="translate(36,105)"/>
<path d="M0 0 C0.99 0 1.98 0 3 0 C3.99 1.98 4.98 3.96 6 6 C5.01 6 4.02 6 3 6 C0 2.66666667 0 2.66666667 0 0 Z " fill="#2F95DA" transform="translate(158,89)"/>
</svg>
